<?xml version="1.0" encoding="UTF-8" standalone="no"?>
<!DOCTYPE svg PUBLIC "-//W3C//DTD SVG 1.1//EN" "http://www.w3.org/Graphics/SVG/1.1/DTD/svg11.dtd">
<svg width="100%" height="100%" viewBox="0 0 1280 1280" version="1.1" xmlns="http://www.w3.org/2000/svg" xmlns:xlink="http://www.w3.org/1999/xlink" xml:space="preserve" xmlns:serif="http://www.serif.com/" style="fill-rule:evenodd;clip-rule:evenodd;stroke-linejoin:round;stroke-miterlimit:2;">
    <g transform="matrix(0.963617,0.267287,-0.267287,0.963617,74.0622,-119.096)">
        <path d="M542.153,169.687C541.548,152.525 527.492,138.908 510.32,138.847C494.039,138.789 473.959,138.717 456.993,138.657C437.219,138.587 421.078,154.455 420.811,174.227C420.241,216.497 419.367,281.237 419.367,281.237L546.705,298.842C546.705,298.842 543.79,216.13 542.153,169.687Z" style="fill:rgb(255,0,0);"/>
    </g>
    <g transform="matrix(0.963617,0.267287,-0.267287,0.963617,208.062,-65.4053)">
        <path d="M535.267,153.433C534.043,137.884 521.779,125.488 506.244,124.1C489.902,122.64 468.698,120.745 450.231,119.094C439.794,118.162 429.467,121.816 421.939,129.106C414.411,136.396 410.427,146.6 411.024,157.063C413.89,207.274 418.324,284.961 418.324,284.961L546.705,298.842C546.705,298.842 539.079,201.903 535.267,153.433Z" style="fill:rgb(255,0,0);"/>
    </g>
    <g transform="matrix(0.963617,0.267287,-0.267287,0.963617,343.062,-25.7946)">
        <path d="M538.599,151.465C537.843,135.096 524.832,121.949 508.471,121.024C490.949,120.033 468.302,118.752 449.01,117.661C438.748,117.08 428.726,120.907 421.462,128.18C414.199,135.452 410.384,145.479 410.977,155.74C414.285,212.966 420.328,317.53 423.873,378.863C425.49,406.839 447.037,429.575 474.886,432.69C475.548,432.764 476.212,432.839 476.878,432.913C495.638,435.012 514.377,428.788 528.154,415.882C541.931,402.976 549.364,384.684 548.493,365.826C545.324,297.156 540.813,199.43 538.599,151.465Z" style="fill:rgb(255,0,0);"/>
    </g>
    <g transform="matrix(0.963617,0.267287,-0.267287,0.963617,471.118,13.5173)">
        <path d="M539.135,152.231C538.082,135.546 524.35,122.49 507.633,122.28C492.996,122.096 475.169,121.872 459.548,121.676C449.668,121.552 440.171,125.488 433.275,132.563C426.378,139.638 422.687,149.233 423.065,159.107C424.749,203.197 427.589,277.544 429.865,337.095C430.622,356.929 441.556,374.971 458.789,384.821C476.021,394.671 497.115,394.937 514.591,385.525C515.12,385.24 515.645,384.957 516.169,384.675C538.351,372.727 551.548,348.96 549.961,323.815C546.886,275.076 541.846,195.204 539.135,152.231Z" style="fill:rgb(255,0,0);"/>
    </g>
    <path d="M454,1235C454,1235 494.5,995.669 479,891.002C473.206,839.734 299.387,647.087 268,547C262,493 319.419,360.007 349,289C364.981,250.638 447.286,297.637 484,315C511.489,328 654,385 654,385C654,385 664,460 582,479C523.386,492.581 410,451 410,451C410,451 417.574,464.328 428,466C534,483 621,543 681,615C660.996,573.585 619.962,533.204 555,494C595.206,495.846 624.115,486.738 640,465C640,465 633,526 700,535C766.018,543.868 781,486 781,486C781,486 794.865,534.487 858,536C940,538 941.243,373.554 948,382C956,392 940.055,471.334 937,557C933.951,642.499 939.911,726.784 924,801C905.294,888.257 849.824,889.827 848,896C846.857,899.869 880.941,887.842 881,893C881.917,972.94 895.386,1217.45 891,1218C775.853,1272.62 583.204,1287.22 454,1235Z" style="fill:rgb(255,0,0);"/>
</svg>
