<?xml version="1.0" encoding="UTF-8" standalone="no"?>
<!DOCTYPE svg PUBLIC "-//W3C//DTD SVG 1.1//EN" "http://www.w3.org/Graphics/SVG/1.1/DTD/svg11.dtd">
<svg width="100%" height="100%" viewBox="0 0 275 97" version="1.1" xmlns="http://www.w3.org/2000/svg" xmlns:xlink="http://www.w3.org/1999/xlink" xml:space="preserve" xmlns:serif="http://www.serif.com/" style="fill-rule:evenodd;clip-rule:evenodd;stroke-linejoin:round;stroke-miterlimit:2;">
    <g transform="matrix(1,0,0,1,-2245.04,-959.647)">
        <g transform="matrix(0.999902,-0.0139811,-0.0139811,-0.999902,14.3369,2047.3)">
            <path d="M2245,1007L2292,992C2292,992 2299.43,967.603 2310,964C2320.57,960.397 2342.72,963.116 2355,963C2367.28,962.884 2379.43,960.091 2388,959C2396.58,957.909 2434,954 2434,971C2434,982.045 2422.65,983.52 2422.65,983.52C2422.65,983.52 2475.52,996.04 2498.52,996.04C2510.57,996.04 2520.52,1000.04 2519.52,1010.04C2518.92,1016.09 2513.52,1017.04 2510.52,1017.04L2503.52,1017.04C2503.52,1017.04 2424.72,1020.78 2420.2,1020.99C2420.07,1021 2419.93,1021 2419.8,1021C2416,1021 2359.66,1021 2345.98,1021C2344.02,1021 2342.08,1021.45 2340.32,1022.3C2327.27,1028.65 2271,1056 2271,1056"/>
        </g>
    </g>
</svg>
