<?xml version="1.0" encoding="UTF-8" standalone="no"?>
<!DOCTYPE svg PUBLIC "-//W3C//DTD SVG 1.1//EN" "http://www.w3.org/Graphics/SVG/1.1/DTD/svg11.dtd">
<svg width="100%" height="100%" viewBox="0 0 203 104" version="1.1" xmlns="http://www.w3.org/2000/svg" xmlns:xlink="http://www.w3.org/1999/xlink" xml:space="preserve" xmlns:serif="http://www.serif.com/" style="fill-rule:evenodd;clip-rule:evenodd;stroke-linejoin:round;stroke-miterlimit:2;">
    <g transform="matrix(1,0,0,1,-2365,-396.987)">
        <path d="M2370,419L2409,421C2417.09,418.896 2437.44,396.365 2449,397C2466,397.933 2481.58,408.035 2482,418C2482,418 2471.67,446.699 2468.2,452.947C2467.07,454.978 2464.09,456.182 2461.85,455.989C2459.61,455.797 2454.39,453.553 2454.02,450.903C2452.73,441.537 2456.55,429.698 2456.33,425.025C2456.25,423.419 2453.42,422.535 2452.18,423.559C2448.89,426.271 2445.85,436.233 2439.17,440.064C2427.95,446.497 2414.26,444.426 2413.5,446.775C2412.74,449.125 2423.13,446.056 2431.3,454.162C2442.53,465.293 2437.31,484.73 2439.87,484.327C2442.43,483.924 2444.63,457.202 2448.21,452.748C2450.83,449.487 2454.42,456.192 2461.01,457.645C2463.95,458.293 2467.62,456.53 2469.26,454.011C2471.83,450.073 2477.46,434.364 2477.46,434.364L2483.3,418.167C2503.09,419.702 2523.02,422.005 2543.09,424.98C2548.95,425.849 2554.82,426.775 2560.71,427.757C2564.85,428.45 2567.8,432.164 2567.54,436.358C2567.53,436.446 2567.53,436.534 2567.52,436.622C2567.39,438.833 2566.37,440.896 2564.7,442.35C2563.02,443.804 2560.84,444.526 2558.63,444.357C2543.21,443.172 2511.06,440.7 2501.91,439.997C2500.27,439.871 2498.64,439.547 2497.07,439.034C2492.84,437.645 2484.37,434.873 2484.37,434.873L2483.83,436.424C2483.83,436.424 2499.14,441.863 2499.15,441.867C2502.3,443.245 2512.51,446.65 2510,455C2508.85,458.835 2506.72,462.192 2501.1,461.744C2489.35,460.807 2477.13,453.526 2477.13,453.952L2476.42,455.404C2476.42,455.404 2490.12,461.243 2493.48,463.086C2499.34,466.305 2499.03,472.715 2497.3,477.226C2491.5,492.375 2471.75,473.276 2449.73,467.734C2449.41,468.405 2449.33,468.659 2449.05,469.367C2455.02,472.197 2484.61,480.513 2483.66,491.222C2483.02,498.436 2477.99,499.813 2475,500C2459,501 2425,497 2402,483L2365,482L2370,419Z" style="fill:white;"/>
    </g>
</svg>
