<?xml version="1.0" encoding="UTF-8" standalone="no"?>
<!DOCTYPE svg PUBLIC "-//W3C//DTD SVG 1.1//EN" "http://www.w3.org/Graphics/SVG/1.1/DTD/svg11.dtd">
<svg width="100%" height="100%" viewBox="0 0 16 16" version="1.1" xmlns="http://www.w3.org/2000/svg" xmlns:xlink="http://www.w3.org/1999/xlink" xml:space="preserve" xmlns:serif="http://www.serif.com/" style="fill-rule:evenodd;clip-rule:evenodd;stroke-linejoin:round;stroke-miterlimit:2;">
    <g transform="matrix(0.025293,0,0,0.025293,-9.41973,-4.63793)">
        <path d="M1005.01,462.731L855.299,462.731L855.299,562.89L904.853,562.89C960.169,562.89 1005.01,518.048 1005.01,462.732L1005.01,462.731Z" style="fill:rgb(118,118,118);"/>
    </g>
    <g transform="matrix(-0.025293,0,0,0.025293,25.4197,-4.63793)">
        <path d="M1005.01,462.731L855.299,462.731L855.299,562.89L904.853,562.89C960.169,562.89 1005.01,518.048 1005.01,462.732L1005.01,462.731Z" style="fill:rgb(118,118,118);"/>
    </g>
    <g transform="matrix(0.0318897,0,0,0.0318897,-7.13215,-7.84053)">
        <path d="M429.737,415.959C374.28,389.7 328.658,353.307 302.382,296.982C301.323,294.692 298.832,293.426 296.357,293.921C293.883,294.417 292.071,296.543 291.974,299.064C290.06,353.635 305.258,411.348 348.069,474.132L429.737,415.959Z" style="fill:rgb(233,210,187);"/>
    </g>
    <g transform="matrix(-0.0410883,0,0,0.0410883,25.6572,-10.5432)">
        <path d="M429.737,415.959C374.28,389.7 328.658,353.307 302.382,296.982C301.323,294.692 298.832,293.426 296.357,293.921C293.883,294.417 292.071,296.543 291.974,299.064C290.06,353.635 305.258,411.348 348.069,474.132L429.737,415.959Z" style="fill:rgb(233,210,187);"/>
    </g>
    <g transform="matrix(0.021107,0,0,0.0269654,-4.70175,-6.11462)">
        <ellipse cx="596.757" cy="552.69" rx="291.171" ry="210.039" style="fill:rgb(236,236,236);"/>
        <clipPath id="_clip1">
            <ellipse cx="596.757" cy="552.69" rx="291.171" ry="210.039"/>
        </clipPath>
        <g clip-path="url(#_clip1)">
            <g transform="matrix(0.432466,0,0,0.467917,439.775,268.739)">
                <ellipse cx="596.757" cy="552.69" rx="291.171" ry="210.039" style="fill:rgb(118,118,118);"/>
            </g>
        </g>
    </g>
    <g transform="matrix(3.43855e-18,-0.0509312,0.0392208,2.81701e-18,-20.9386,34.2689)">
        <ellipse cx="446.435" cy="735.135" rx="46.95" ry="95.135" style="fill:rgb(245,204,232);"/>
    </g>
    <g transform="matrix(0.0138063,0,0,0.0061304,-0.433862,3.55576)">
        <ellipse cx="838.919" cy="779.202" rx="49.009" ry="110.373" style="fill:rgb(54,54,54);"/>
    </g>
    <g transform="matrix(0.0138063,0,0,0.0061304,-6.9428,3.55576)">
        <ellipse cx="838.919" cy="779.202" rx="49.009" ry="110.373" style="fill:rgb(54,54,54);"/>
    </g>
    <g transform="matrix(0.0117846,0,0,0.00523273,-3.72795,7.45405)">
        <ellipse cx="838.919" cy="779.202" rx="49.009" ry="110.373" style="fill:rgb(200,118,118);"/>
    </g>
    <g transform="matrix(0.0117846,0,0,0.00523273,-0.256707,7.45405)">
        <ellipse cx="838.919" cy="779.202" rx="49.009" ry="110.373" style="fill:rgb(200,118,118);"/>
    </g>
    <g transform="matrix(0.036643,0,0,0.0485541,-12.7627,-21.4051)">
        <ellipse cx="593.96" cy="708.439" rx="24.823" ry="13.179" style="fill:rgb(194,61,61);"/>
        <clipPath id="_clip2">
            <ellipse cx="593.96" cy="708.439" rx="24.823" ry="13.179"/>
        </clipPath>
        <g clip-path="url(#_clip2)">
            <g transform="matrix(1.45284,0,0,1.09644,-269.56,-57.6115)">
                <path d="M603.783,673.717L586.743,673.717L586.743,696.135C586.743,697.949 588.214,699.42 590.028,699.42C592.752,699.42 596.641,699.42 599.589,699.42C601.905,699.42 603.783,697.543 603.783,695.226C603.783,687.941 603.783,673.717 603.783,673.717Z" style="fill:white;"/>
            </g>
        </g>
    </g>
    <g transform="matrix(0.036643,0,0,0.0485541,-15.1311,-21.4658)">
        <ellipse cx="593.96" cy="708.439" rx="24.823" ry="13.179" style="fill:rgb(194,61,61);"/>
        <clipPath id="_clip3">
            <ellipse cx="593.96" cy="708.439" rx="24.823" ry="13.179"/>
        </clipPath>
        <g clip-path="url(#_clip3)">
            <g transform="matrix(1.45284,0,0,1.09644,-269.56,-57.6115)">
                <path d="M603.783,673.717L586.743,673.717L586.743,696.135C586.743,697.949 588.214,699.42 590.028,699.42C592.752,699.42 596.641,699.42 599.589,699.42C601.905,699.42 603.783,697.543 603.783,695.226C603.783,687.941 603.783,673.717 603.783,673.717Z" style="fill:white;"/>
            </g>
        </g>
    </g>
    <path d="M6.804,12.303C7.129,12.347 7.253,12.422 7.396,12.583C7.139,12.681 6.912,12.957 6.912,13.215C6.912,13.564 7.319,13.923 7.722,13.923C8.124,13.923 8.566,13.647 8.566,13.298C8.566,13.065 8.401,12.824 8.182,12.715C8.282,12.536 8.464,12.441 8.726,12.383C8.994,12.603 9.16,12.909 9.16,13.247C9.16,13.916 8.511,14.459 7.712,14.459C6.913,14.459 6.264,13.916 6.264,13.247C6.264,12.866 6.475,12.525 6.804,12.303Z" style="fill:rgb(255,231,0);"/>
    <clipPath id="_clip4">
        <path d="M6.804,12.303C7.129,12.347 7.253,12.422 7.396,12.583C7.139,12.681 6.912,12.957 6.912,13.215C6.912,13.564 7.319,13.923 7.722,13.923C8.124,13.923 8.566,13.647 8.566,13.298C8.566,13.065 8.401,12.824 8.182,12.715C8.282,12.536 8.464,12.441 8.726,12.383C8.994,12.603 9.16,12.909 9.16,13.247C9.16,13.916 8.511,14.459 7.712,14.459C6.913,14.459 6.264,13.916 6.264,13.247C6.264,12.866 6.475,12.525 6.804,12.303Z"/>
    </clipPath>
    <g clip-path="url(#_clip4)">
        <g transform="matrix(1.74287,0.852459,-0.541364,1.10683,3.15513,-6.85924)">
            <ellipse cx="6.258" cy="13.061" rx="0.601" ry="1.046" style="fill:rgb(255,215,0);"/>
        </g>
    </g>
</svg>
