<?xml version="1.0" encoding="UTF-8" standalone="no"?>
<!DOCTYPE svg PUBLIC "-//W3C//DTD SVG 1.1//EN" "http://www.w3.org/Graphics/SVG/1.1/DTD/svg11.dtd">
<svg width="100%" height="100%" viewBox="0 0 256 256" version="1.1" xmlns="http://www.w3.org/2000/svg" xmlns:xlink="http://www.w3.org/1999/xlink" xml:space="preserve" xmlns:serif="http://www.serif.com/" style="fill-rule:evenodd;clip-rule:evenodd;stroke-linejoin:round;stroke-miterlimit:2;">
    <path d="M256,113.055l-60.587,-0l0,40.533l20.054,0c22.386,0 40.533,-18.147 40.533,-40.533l-0,-0Z" style="fill:rgb(118,118,118);"/>
    <path d="M0,113.055l60.587,-0l-0,40.533l-20.054,0c-22.386,0 -40.533,-18.147 -40.533,-40.533l0,-0Z" style="fill:rgb(118,118,118);"/>
    <path d="M105.153,86.789c-28.297,-13.399 -51.574,-31.968 -64.981,-60.706c-0.541,-1.169 -1.812,-1.815 -3.074,-1.562c-1.263,0.252 -2.188,1.337 -2.237,2.624c-0.977,27.844 6.778,57.291 28.622,89.326l41.67,-29.682Z" style="fill:rgb(233,210,187);"/>
    <path d="M128,104.766c36.458,-17.264 66.451,-41.189 83.725,-78.217c0.696,-1.506 2.334,-2.338 3.961,-2.012c1.626,0.325 2.818,1.723 2.881,3.381c1.259,35.875 -8.733,73.816 -36.877,115.091l-53.69,-38.243Z" style="fill:rgb(233,210,187);"/>
    <ellipse cx="126.304" cy="140.623" rx="98.332" ry="90.621" style="fill:rgb(236,236,236);"/>
    <clipPath id="_clip1">
        <ellipse cx="126.304" cy="140.623" rx="98.332" ry="90.621"/>
    </clipPath>
    <g clip-path="url(#_clip1)">
        <ellipse cx="160.445" cy="129.691" rx="42.525" ry="42.403" style="fill:rgb(118,118,118);"/>
    </g>
    <path d="M66.604,184.502c-0,-21.116 26.751,-38.259 59.7,-38.259c32.95,0 59.701,17.143 59.701,38.259c-0,21.116 -26.751,38.26 -59.701,38.26c-32.949,-0 -59.7,-17.144 -59.7,-38.26Z" style="fill:rgb(245,204,232);"/>
    <g id="EyeR">
        <circle id="Eye" cx="178.376" cy="133.321" r="10.826" style="fill:rgb(54,54,54);"/>
        <clipPath id="_clip2">
            <circle id="Eye1" serif:id="Eye" cx="178.376" cy="133.321" r="10.826"/>
        </clipPath>
        <g clip-path="url(#_clip2)">
            <path d="M178.376,133.321c-3.963,-3.927 -3.195,-8.668 -0,-13.67l10.826,3.88c-5.868,0.439 -9.968,3.387 -10.826,9.79Z" style="fill:rgb(131,0,255);"/>
            <path d="M178.376,133.321c-5.56,-0.461 -8.02,-4.586 -8.787,-10.471l10.787,-3.988c-4.214,4.109 -5.458,9.003 -2,14.459Z" style="fill:rgb(12,0,255);"/>
            <path d="M178.376,133.321c-4.556,3.221 -9.092,1.642 -13.462,-2.373l5.7,-9.988c-0.587,5.855 1.605,10.404 7.762,12.361Z" style="fill:rgb(0,96,255);"/>
            <path d="M178.376,133.321c-1.42,5.396 -5.91,7.101 -11.839,6.835l-2.053,-11.315c3.314,4.863 7.918,6.938 13.892,4.48Z" style="fill:rgb(0,245,255);"/>
            <path d="M178.376,133.321c2.38,5.046 0.037,9.239 -4.676,12.846l-8.846,-7.348c5.665,1.595 10.525,0.226 13.522,-5.498Z" style="fill:rgb(0,255,94);"/>
            <path d="M178.376,133.321c5.067,2.335 5.967,7.053 4.675,12.846l-11.5,0.057c5.365,-2.419 8.208,-6.592 6.825,-12.903Z" style="fill:rgb(149,255,0);"/>
            <path d="M178.376,133.321c5.382,-1.468 9.104,1.568 11.838,6.835l-8.772,7.436c2.554,-5.301 2.05,-10.326 -3.066,-14.271Z" style="fill:rgb(255,210,0);"/>
            <path d="M178.376,133.321c3.179,-4.584 7.982,-4.651 13.462,-2.373l-1.94,11.335c-1.451,-5.703 -5.067,-9.228 -11.522,-8.962Z" style="fill:rgb(255,0,0);"/>
            <path d="M178.376,133.321c-0.511,-5.555 3.661,-8.515 9.323,-10.292l5.263,9.751c-4.777,-3.436 -9.813,-3.812 -14.586,0.541Z" style="fill:rgb(255,0,182);"/>
        </g>
        <path id="Eye2" serif:id="Eye" d="M178.376,120.763c-6.931,-0 -12.559,5.627 -12.559,12.558c0,6.932 5.628,12.559 12.559,12.559c6.931,-0 12.558,-5.627 12.558,-12.559c0,-6.931 -5.627,-12.558 -12.558,-12.558Zm-0,1.732c5.975,0 10.826,4.851 10.826,10.826c-0,5.975 -4.851,10.826 -10.826,10.826c-5.975,0 -10.826,-4.851 -10.826,-10.826c-0,-5.975 4.851,-10.826 10.826,-10.826Z" style="fill:rgb(54,54,54);"/>
    </g>
    <g id="EyeL">
        <circle id="Eye3" serif:id="Eye" cx="74.233" cy="133.321" r="10.826" style="fill:rgb(54,54,54);"/>
        <clipPath id="_clip3">
            <circle id="Eye4" serif:id="Eye" cx="74.233" cy="133.321" r="10.826"/>
        </clipPath>
        <g clip-path="url(#_clip3)">
            <path d="M74.233,133.321c-3.963,-3.927 -3.195,-8.668 -0,-13.67l10.826,3.88c-5.868,0.439 -9.968,3.387 -10.826,9.79Z" style="fill:rgb(131,0,255);"/>
            <path d="M74.233,133.321c-5.56,-0.461 -8.02,-4.586 -8.787,-10.471l10.787,-3.988c-4.214,4.109 -5.458,9.003 -2,14.459Z" style="fill:rgb(12,0,255);"/>
            <path d="M74.233,133.321c-4.556,3.221 -9.092,1.642 -13.462,-2.373l5.7,-9.988c-0.587,5.855 1.605,10.404 7.762,12.361Z" style="fill:rgb(0,96,255);"/>
            <path d="M74.233,133.321c-1.42,5.396 -5.91,7.101 -11.839,6.835l-2.053,-11.315c3.314,4.863 7.918,6.938 13.892,4.48Z" style="fill:rgb(0,245,255);"/>
            <path d="M74.233,133.321c2.38,5.046 0.037,9.239 -4.676,12.846l-8.846,-7.348c5.665,1.595 10.525,0.226 13.522,-5.498Z" style="fill:rgb(0,255,94);"/>
            <path d="M74.233,133.321c5.067,2.335 5.967,7.053 4.675,12.846l-11.5,0.057c5.365,-2.419 8.208,-6.592 6.825,-12.903Z" style="fill:rgb(149,255,0);"/>
            <path d="M74.233,133.321c5.382,-1.468 9.104,1.568 11.838,6.835l-8.772,7.436c2.554,-5.301 2.05,-10.326 -3.066,-14.271Z" style="fill:rgb(255,210,0);"/>
            <path d="M74.233,133.321c3.179,-4.584 7.982,-4.651 13.462,-2.373l-1.94,11.335c-1.451,-5.703 -5.067,-9.228 -11.522,-8.962Z" style="fill:rgb(255,0,0);"/>
            <path d="M74.233,133.321c-0.511,-5.555 3.661,-8.515 9.323,-10.292l5.263,9.751c-4.777,-3.436 -9.813,-3.812 -14.586,0.541Z" style="fill:rgb(255,0,182);"/>
        </g>
        <path id="Eye5" serif:id="Eye" d="M74.233,120.763c-6.931,-0 -12.559,5.627 -12.559,12.558c0,6.932 5.628,12.559 12.559,12.559c6.931,-0 12.558,-5.627 12.558,-12.559c0,-6.931 -5.627,-12.558 -12.558,-12.558Zm-0,1.732c5.975,0 10.826,4.851 10.826,10.826c-0,5.975 -4.851,10.826 -10.826,10.826c-5.975,0 -10.826,-4.851 -10.826,-10.826c-0,-5.975 4.851,-10.826 10.826,-10.826Z" style="fill:rgb(54,54,54);"/>
    </g>
    <circle cx="98.534" cy="184.502" r="9.241" style="fill:rgb(200,118,118);"/>
    <circle cx="154.074" cy="184.502" r="9.241" style="fill:rgb(200,118,118);"/>
    <ellipse cx="144.029" cy="207.88" rx="14.553" ry="10.238" style="fill:rgb(194,61,61);"/>
    <clipPath id="_clip4">
        <ellipse cx="144.029" cy="207.88" rx="14.553" ry="10.238"/>
    </clipPath>
    <g clip-path="url(#_clip4)">
        <path d="M152.05,186.623l-14.515,0l0,21.719c0,0.046 0.019,0.091 0.052,0.124c0.033,0.032 0.077,0.051 0.123,0.051c1.516,-0 12.415,-0 14.117,-0c0.123,-0 0.223,-0.1 0.223,-0.223c-0,-2.305 -0,-21.671 -0,-21.671Z" style="fill:white;"/>
    </g>
    <ellipse cx="106.134" cy="206.909" rx="14.553" ry="10.238" style="fill:rgb(194,61,61);"/>
    <clipPath id="_clip5">
        <ellipse cx="106.134" cy="206.909" rx="14.553" ry="10.238"/>
    </clipPath>
    <g clip-path="url(#_clip5)">
        <path d="M114.155,185.651l-14.514,0l-0,21.719c-0,0.047 0.018,0.091 0.051,0.124c0.033,0.033 0.078,0.051 0.124,0.051c1.516,0 12.414,0 14.116,0c0.123,0 0.223,-0.1 0.223,-0.223c0,-2.305 0,-21.671 0,-21.671Z" style="fill:white;"/>
    </g>
    <path d="M108.865,196.851c5.198,0.695 7.185,1.895 9.463,4.47c-4.1,1.568 -7.741,5.987 -7.741,10.117c0,5.579 6.523,11.324 12.964,11.324c6.441,-0 13.513,-4.407 13.513,-9.987c-0,-3.741 -2.654,-7.595 -6.145,-9.343c1.591,-2.859 4.511,-4.373 8.697,-5.31c4.281,3.519 6.938,8.418 6.938,13.832c0,10.701 -10.38,19.389 -23.167,19.389c-12.786,0 -23.166,-8.688 -23.166,-19.389c-0,-6.101 3.374,-11.548 8.644,-15.103Z" style="fill:rgb(255,231,0);"/>
    <clipPath id="_clip6">
        <path d="M108.865,196.851c5.198,0.695 7.185,1.895 9.463,4.47c-4.1,1.568 -7.741,5.987 -7.741,10.117c0,5.579 6.523,11.324 12.964,11.324c6.441,-0 13.513,-4.407 13.513,-9.987c-0,-3.741 -2.654,-7.595 -6.145,-9.343c1.591,-2.859 4.511,-4.373 8.697,-5.31c4.281,3.519 6.938,8.418 6.938,13.832c0,10.701 -10.38,19.389 -23.167,19.389c-12.786,0 -23.166,-8.688 -23.166,-19.389c-0,-6.101 3.374,-11.548 8.644,-15.103Z"/>
    </clipPath>
    <g clip-path="url(#_clip6)">
        <path d="M120.922,188.391c9.252,4.525 12.705,16.497 7.706,26.717c-4.999,10.22 -16.569,14.844 -25.82,10.318c-9.252,-4.525 -12.705,-16.496 -7.706,-26.716c4.998,-10.22 16.568,-14.844 25.82,-10.319Z" style="fill:rgb(255,215,0);"/>
    </g>
</svg>
