<?xml version="1.0" encoding="UTF-8" standalone="no"?>
<!DOCTYPE svg PUBLIC "-//W3C//DTD SVG 1.1//EN" "http://www.w3.org/Graphics/SVG/1.1/DTD/svg11.dtd">
<svg width="100%" height="100%" viewBox="0 0 47 124" version="1.1" xmlns="http://www.w3.org/2000/svg" xmlns:xlink="http://www.w3.org/1999/xlink" xml:space="preserve" xmlns:serif="http://www.serif.com/" style="fill-rule:evenodd;clip-rule:evenodd;stroke-linecap:round;stroke-linejoin:round;stroke-miterlimit:1.5;">
    <path d="M21.755,1.042C6.911,10.459 -5.235,35.705 4.595,54.934C20.334,85.719 52.996,60.101 44.086,41.486C31.271,14.709 -14.095,42.179 11.093,83.336C16.997,92.982 18.682,94.192 20.663,108.006" style="fill:none;stroke:rgb(248,79,57);stroke-width:2.08px;stroke-dasharray:4.17,4.17,0,0;stroke-dashoffset:4.17;"/>
    <path d="M16.868,112.873C16.763,112.61 16.792,112.312 16.947,112.074C17.101,111.837 17.362,111.69 17.645,111.68C19.359,111.62 22.442,111.511 24.193,111.449C24.484,111.439 24.761,111.575 24.93,111.812C25.1,112.049 25.14,112.354 25.037,112.627C24.274,114.64 22.745,118.675 21.808,121.147C21.681,121.482 21.361,121.705 21.003,121.709C20.644,121.712 20.32,121.495 20.187,121.162C19.216,118.737 17.642,114.806 16.868,112.873Z" style="fill:rgb(248,79,57);"/>
</svg>
