<?xml version="1.0" encoding="UTF-8" standalone="no"?>
<!DOCTYPE svg PUBLIC "-//W3C//DTD SVG 1.1//EN" "http://www.w3.org/Graphics/SVG/1.1/DTD/svg11.dtd">
<svg width="100%" height="100%" viewBox="0 0 308 82" version="1.1" xmlns="http://www.w3.org/2000/svg" xmlns:xlink="http://www.w3.org/1999/xlink" xml:space="preserve" xmlns:serif="http://www.serif.com/" style="fill-rule:evenodd;clip-rule:evenodd;stroke-linecap:round;stroke-linejoin:round;stroke-miterlimit:1.5;">
    <g transform="matrix(1,0,0,1,-191.334,-702.833)">
        <path d="M214,707C210.644,708.678 185.995,783.542 199.525,779.575C209.115,776.764 236.893,697.618 252,712C265.376,724.734 235,770 235,770C235,770 279.958,730.204 280.283,735.16C280.452,737.734 265.026,767.294 284,768C302.445,768.687 325.277,742.952 331,737C336.723,731.048 348.603,714.672 357.728,713.268C366.853,711.864 374,715 374,715C374,715 347.339,702.054 337,737C329.77,761.437 339.697,766.76 345,767C356.55,767.523 361.495,752.077 361.601,743C361.708,733.923 359,727 359,727C359,727 360.986,733.625 386,733C411.014,732.375 417.279,730.728 417.279,730.728C422.3,716.034 437.397,709.562 453,715C453,715 427.333,705.123 416,735C407.079,758.517 416.234,766.212 422,767C433.615,768.588 439.416,751.993 440.774,744.245C443.119,730.858 438,728 438,728C438,728 445.049,735.412 466.981,734.34C487.025,733.36 495,730 495,730" style="fill:none;stroke:rgb(248,79,57);stroke-width:8.33px;"/>
    </g>
</svg>
